<?xml version="1.0" encoding="utf-8" ?><svg xmlns="http://www.w3.org/2000/svg" xmlns:xlink="http://www.w3.org/1999/xlink" width="1024" height="1024" viewBox="0 0 1024 1024"><defs><linearGradient id="gradient_0" gradientUnits="userSpaceOnUse" x1="791.44977" y1="702.29242" x2="316.64523" y2="384.35983"><stop offset="0" stop-color="#8556FF"/><stop offset="1" stop-color="#37A3FF"/></linearGradient></defs><path fill="url(#gradient_0)" d="M564.64 177.621C571.605 176.873 578.61 176.083 585.624 176.117C617.265 176.459 647.875 187.408 672.555 207.212C684.279 216.512 694.073 228.013 701.386 241.07C703.584 245.068 705.306 249.304 707.442 253.327C715.675 256.502 724.047 259.429 731.858 263.571C755.466 276.092 774.46 297.444 785.262 321.779C794.299 342.139 798.32 365.572 797.408 387.846C819.225 402.094 835.526 433.5 840.753 458.537C847.493 489.309 842.845 521.481 827.673 549.087C839.696 580.389 838.855 618.267 825.108 648.96C815.55 670.483 800.128 688.881 780.607 702.054C778.696 709.016 776.97 716.068 774.488 722.855C762.718 755.923 739.398 783.626 708.822 800.863C700.5 805.604 691.606 809.953 682.39 812.626C677.625 814.008 672.227 814.502 667.687 816.458C660.185 819.691 653.422 825.319 645.978 828.978C622.478 840.532 592.414 843.234 567.233 836.268C543.846 829.798 527.674 816.977 512.499 798.552C493.694 821.324 468.362 835.887 438.803 838.706C416.801 840.805 393.068 836.145 373.426 826.042C367.161 822.82 361.365 818.161 354.919 815.449C349.143 813.019 342.779 811.947 336.873 809.809C321.542 804.259 306.728 795.439 294.183 785.043C274.531 768.758 258.762 747.415 250.153 723.329C247.738 716.571 246.327 709.684 244.239 702.857C226.761 689.8 213.203 675.488 203.191 655.925C200.66 650.98 198.842 645.71 196.363 640.773C196.248 639.756 195.763 638.705 195.43 637.734C194.718 634.123 193.487 630.465 192.529 626.901C189.341 613.015 186.795 587.055 190.274 573.11C190.99 564.55 193.585 556.243 196.318 548.147C185.079 525.237 180.532 501.799 182.218 476.324C184.594 440.44 200.235 410.829 227.02 387.326C227.079 365.353 229.974 343.738 238.861 323.427C250.44 297.662 270.284 276.497 295.25 263.284C303.362 259.087 311.758 256.361 320.201 253.027C323.54 246.625 326.159 240.142 330.006 233.97C347.462 205.967 377.373 186.846 409.255 179.555C445.701 171.22 481.623 178.298 513.117 198.02C518.21 194.308 523.193 191.308 528.884 188.572C539.862 182.672 552.473 179.851 564.64 177.621ZM515.313 352.018C507.633 352.537 499.751 352.11 492.038 352.208C492.625 333.654 492.091 314.892 492.089 296.313C492.087 278.733 492.655 260.9 491.857 243.345C491.535 238.217 489.075 234.858 485.283 231.563C470.443 218.666 449.399 214.693 430.28 216.148C406.948 218.065 385.318 229.122 370.099 246.91C365.87 251.872 362.236 257.312 359.271 263.118C355.891 269.701 353.607 279.516 348.116 284.547C342.935 289.294 334.704 290.319 328.199 292.36C304.654 299.746 285.884 317.916 275.727 340.106C271.325 349.951 268.705 360.5 267.989 371.261C267.308 380.98 270.911 396.059 265.71 404.43C262.075 410.28 254.633 414.143 249.727 418.937C229.168 439.024 220.122 467.127 222.545 495.499C223.279 504.102 224.938 512.207 228 520.283C232.559 531.157 238.686 538.777 249.561 543.718C265.858 549.66 283.376 547.873 301.002 554.009C326.19 562.779 346.823 579.73 358.361 604.025C361.196 610.074 363.484 616.365 365.197 622.823C367.756 632.785 371.453 656.667 367.779 666.184C366.052 670.657 362.692 674.277 358.19 676.03C352.989 678.056 345.242 677.756 340.159 675.253C328.633 669.578 329.839 654.595 328.653 643.768C328.007 637.87 326.942 631.982 325.07 626.341C317.935 604.852 300.307 592.916 278.759 588.373C270.819 586.698 262.701 586.094 254.799 584.166C246.234 582.076 238.494 578.823 230.673 574.85C229.709 580.357 229.033 585.861 228.959 591.458C228.565 621.247 240.646 650.392 264.618 668.82C270.25 673.15 278.612 676.428 282.383 682.625C285.418 687.61 285.425 694.614 286.635 700.236C290.332 717.416 300.145 734.515 312.404 746.996C323.682 758.477 338.801 768.679 354.469 772.891C360.528 774.521 367.217 775.161 372.941 777.757C378.135 780.113 382.908 783.964 387.742 786.992C400.148 794.624 414.44 798.638 429.006 798.58C445.331 798.655 461.014 792.231 472.595 780.725C481.236 772.014 486.818 761.125 489.684 749.256C493.265 734.427 492.09 718.298 492.087 703.12L492.025 651.169C505.293 651.452 518.694 651.555 531.957 651.101C531.569 667.578 531.854 684.116 531.858 700.599C531.862 717.156 530.457 735.031 534.144 751.232C537.771 767.166 547.136 782.167 561.131 790.946C582.715 804.486 610.961 802.734 632.689 790.452C638.922 786.929 643.98 781.13 650.71 778.508C655.302 776.719 660.72 776.707 665.526 775.539C699.035 767.393 726.064 739.058 735.916 706.567C738.247 698.882 737.903 688.012 742.659 681.51C746.172 676.707 752.372 673.808 757.25 670.609C766.354 664.768 773.951 656.862 779.424 647.532C787.278 634.424 790.161 619.198 786.276 604.312C777.124 569.251 738.985 561.07 711.641 544.948C695.551 535.461 679.151 520.129 672.106 502.468C670.355 498.079 669.338 493.089 668.203 488.499C665.68 478.298 664.675 451.598 670.179 442.84C673.073 438.234 677.731 435.219 683.041 434.166C688.648 433.054 694.792 433.965 699.476 437.356C711.676 446.189 706.807 467.4 709.068 480.486C713.933 508.634 745.434 517.905 767.414 529.804C773.893 533.311 779.904 537.967 785.921 542.208C796.953 526.552 802.954 507.906 803.124 488.754C803.397 465.778 795.964 440.783 779.749 423.905C774.201 418.13 767.307 413.883 761.811 408.179C753.765 399.828 757.096 390.748 757.271 380.65C757.9 344.442 738.08 309.962 704.454 295.293C696.787 291.949 684.627 290.368 678.59 284.972C672.256 279.311 670.129 269.796 666.18 262.469C662.653 255.933 658.195 249.946 652.945 244.694C636.067 227.562 610.623 216.307 586.506 216.18C570.499 216.096 549.821 220.333 538.093 232.112C535.582 234.634 533.093 237.924 532.469 241.508C530.777 251.215 531.864 267.588 531.867 277.855L532.043 352.424C526.517 351.967 520.862 352.202 515.313 352.018ZM293.372 474.958C291.544 472.351 289.966 469.681 289.198 466.558C288.114 462.148 288.513 456.132 290.555 451.974C298.024 436.767 323.506 423.696 337.756 414.369C345.246 409.467 352.814 403.847 358.983 397.327C384.141 370.736 367.099 340.067 377.627 323.959C380.476 319.601 384.677 317.34 389.69 316.335C396.17 315.036 404 316.097 409.386 320.029C414.055 323.436 415.153 329.328 416.131 334.645C418.24 364.179 412.941 396.945 393.12 419.963C374.769 441.275 355.114 448.879 333.371 464.639C327.882 468.617 324.093 474.771 318.39 478.398C315.707 480.104 312.611 480.983 309.448 481.175C303.216 481.551 297.949 478.964 293.372 474.958Z"/><defs><linearGradient id="gradient_1" gradientUnits="userSpaceOnUse" x1="624.63446" y1="600.66034" x2="432.30978" y2="479.65775"><stop offset="0" stop-color="#765FFF"/><stop offset="1" stop-color="#4296FF"/></linearGradient></defs><path fill="url(#gradient_1)" d="M496.785 389.135C506.095 388.653 524.747 387.63 532.898 390.864C538.722 393.174 541.238 398.389 543.491 403.824C552.705 426.048 560.922 448.812 569.406 471.328L594.417 536.584C599.52 550.038 604.706 563.46 609.975 576.849C613.122 584.89 616.898 593.122 619.138 601.453C620.14 605.183 620.542 609.293 618.899 612.911C617.423 616.163 614.476 618.187 611.208 619.39C603.285 622.305 589.02 622.006 581.502 618.22C578.631 616.774 576.259 614.791 574.484 612.103C570.73 606.416 568.621 599.207 566.127 592.879C562.604 583.939 558.919 575.03 555.731 565.965L528.118 565.958L466.88 565.994C463.379 575.538 459.763 585.039 456.031 594.494C453.829 600.158 451.899 606.438 448.821 611.676C446.262 616.03 441.785 619.096 436.855 620.181C429.266 621.851 416.144 622.337 409.438 617.721C406.612 615.791 404.726 612.764 404.24 609.377C403.769 606.293 404.221 603.204 405.206 600.267C408.865 589.363 413.535 578.592 417.643 567.835L445.455 495.24L469.615 431.98C472.969 423.184 479.604 402.147 484.609 395.459C487.805 391.188 491.743 389.902 496.785 389.135ZM513.625 525.344C523.502 525.312 533.4 525.21 543.273 525.527C535.744 506.731 528.362 487.877 521.128 468.966C518.129 461.323 515.524 452.339 511.465 445.227L480.276 525.315L513.625 525.344Z"/><path fill="#7A61FE" d="M689.015 612.177C693.585 612.372 697.856 613.162 701.683 615.823C705.258 618.299 707.687 622.109 708.424 626.395C711.238 642.105 699.845 667.457 691.113 680.1C683.354 691.334 673.38 700.754 663.107 709.662C657.957 714.128 652.58 718.417 647.882 723.369C642.584 728.952 639.234 736.397 633.209 741.271C629.731 744.084 626.287 745.167 621.997 745.943C616.961 745.977 611.744 745.1 607.643 741.974C603.782 739.029 601.527 734.336 600.957 729.571C598.333 707.63 626.26 690.393 640.642 678.057C646.912 672.678 652.931 666.666 657.528 659.763C661.428 653.781 664.516 647.307 666.71 640.512C669.048 633.48 669.761 624.734 674.542 618.872C678.431 614.105 683.202 612.85 689.015 612.177Z"/><defs><linearGradient id="gradient_2" gradientUnits="userSpaceOnUse" x1="397.15955" y1="411.29089" x2="260.34946" y2="291.24136"><stop offset="0" stop-color="#409CFF"/><stop offset="1" stop-color="#37C3FF"/></linearGradient></defs><path fill="url(#gradient_2)" d="M320.201 253.027C323.54 246.625 326.159 240.142 330.006 233.97C347.462 205.967 377.373 186.846 409.255 179.555C445.701 171.22 481.623 178.298 513.117 198.02C518.21 194.308 523.193 191.308 528.884 188.572L532.139 188.49L532.534 188.895C531.344 190.429 529.655 191.277 528.017 192.261C529.132 192.943 529.532 193.035 530.07 194.203C529.207 198.383 527.924 202.7 526.358 206.679C524.972 210.199 523.121 213.565 522.447 217.324C521.706 221.458 520.013 249.883 519.739 250.415L519.12 250.496C518.759 245.595 519.621 240.729 518.96 235.831L518.777 235.761C518.827 240.339 519.649 246.953 518.074 251.187C517.175 253.605 513.677 256.073 513.213 257.579C513.084 257.997 513.507 259.644 513.581 260.168L513.189 260.516L512.794 259.185C510.866 260.171 506.958 266.867 505.662 266.772C505.096 264.282 505.2 261.741 505.185 259.199L504.88 259.017C503.93 262.931 505.11 267.25 503.963 271.017C502.174 271.285 500.511 271.167 499.246 272.642C496.055 276.364 494.108 296.264 493.526 301.756L493.449 299.258C492.725 307.403 493.099 315.61 493.188 323.777L493.245 351.255C500.333 351.224 507.629 350.844 514.69 351.383L515.313 352.018C507.633 352.537 499.751 352.11 492.038 352.208C492.625 333.654 492.091 314.892 492.089 296.313C492.087 278.733 492.655 260.9 491.857 243.345C491.535 238.217 489.075 234.858 485.283 231.563C470.443 218.666 449.399 214.693 430.28 216.148C406.948 218.065 385.318 229.122 370.099 246.91C365.87 251.872 362.236 257.312 359.271 263.118C355.891 269.701 353.607 279.516 348.116 284.547C342.935 289.294 334.704 290.319 328.199 292.36C304.654 299.746 285.884 317.916 275.727 340.106C271.325 349.951 268.705 360.5 267.989 371.261C267.308 380.98 270.911 396.059 265.71 404.43C262.075 410.28 254.633 414.143 249.727 418.937C229.168 439.024 220.122 467.127 222.545 495.499C223.279 504.102 224.938 512.207 228 520.283C232.559 531.157 238.686 538.777 249.561 543.718C249.414 544.952 249.675 544.389 249.141 545.005C248.026 546.294 247.447 547.704 246.059 548.808C242.243 551.842 237.711 554.025 233.956 557.136C230.344 560.127 227.397 565.055 223.132 567.066C214.88 570.957 205.506 572.625 197.452 577.058C196.863 576.177 197 576.647 196.957 575.789C196.884 574.327 196.848 573.378 196.03 572.103C194.242 571.525 193.734 572.241 192.074 572.16C191.238 572.707 191.12 572.847 190.665 573.738L190.274 573.11C190.99 564.55 193.585 556.243 196.318 548.147C185.079 525.237 180.532 501.799 182.218 476.324C184.594 440.44 200.235 410.829 227.02 387.326C227.079 365.353 229.974 343.738 238.861 323.427C250.44 297.662 270.284 276.497 295.25 263.284C303.362 259.087 311.758 256.361 320.201 253.027Z"/><path fill="#3DABFE" d="M227.08 572.389C228.491 572.197 229.606 572.05 231.022 572.375L231.605 573.598C230.573 574.326 229.96 574.578 228.71 574.757C227.444 574.011 227.549 573.808 227.08 572.389Z"/><path fill="#3DABFE" d="M293.372 474.958C291.544 472.351 289.966 469.681 289.198 466.558C288.114 462.148 288.513 456.132 290.555 451.974C298.024 436.767 323.506 423.696 337.756 414.369C345.246 409.467 352.814 403.847 358.983 397.327C384.141 370.736 367.099 340.067 377.627 323.959C380.476 319.601 384.677 317.34 389.69 316.335C396.17 315.036 404 316.097 409.386 320.029C414.055 323.436 415.153 329.328 416.131 334.645C418.24 364.179 412.941 396.945 393.12 419.963C374.769 441.275 355.114 448.879 333.371 464.639C327.882 468.617 324.093 474.771 318.39 478.398C315.707 480.104 312.611 480.983 309.448 481.175C303.216 481.551 297.949 478.964 293.372 474.958Z"/></svg>